<svg width="951" height="302" viewBox="0 0 951 302" fill="none" xmlns="http://www.w3.org/2000/svg">
<g id="Logo">
<g clip-path="url(#clip0_306_991)">
<rect width="951" height="302" rx="51" fill="#FFF1DA"/>
<g id="Travello">
<rect id="Rectangle 166" x="509" y="218" width="320.393" height="45.7359" rx="22.868" fill="white"/>
<rect id="Rectangle 167" x="753" y="37" width="76.2841" height="45.7359" rx="22.868" fill="white"/>
<path id="Rectangle 168" d="M147 217.868C147 205.239 157.238 195 169.868 195H200.416C213.046 195 223.284 205.239 223.284 217.868V217.868C223.284 230.498 213.046 240.736 200.416 240.736H169.868C157.238 240.736 147 230.498 147 217.868V217.868Z" fill="white"/>
<g id="Pair Up" filter="url(#filter0_b_306_991)">
<path d="M154.746 172V82.4H197.882C206.245 82.4 213.455 83.7653 219.514 86.496C225.658 89.2267 230.394 93.152 233.722 98.272C237.05 103.307 238.714 109.28 238.714 116.192C238.714 123.104 237.05 129.077 233.722 134.112C230.394 139.147 225.658 143.072 219.514 145.888C213.455 148.619 206.245 149.984 197.882 149.984H171.514L184.954 137.056V172H154.746ZM184.954 140.384L171.514 126.688H195.962C200.143 126.688 203.215 125.749 205.178 123.872C207.226 121.995 208.25 119.435 208.25 116.192C208.25 112.949 207.226 110.389 205.178 108.512C203.215 106.635 200.143 105.696 195.962 105.696H171.514L184.954 92V140.384ZM315.068 172V159.584L313.02 156.256V132.704C313.02 129.291 311.953 126.688 309.82 124.896C307.772 123.104 304.401 122.208 299.708 122.208C296.551 122.208 293.351 122.72 290.108 123.744C286.865 124.683 284.092 126.005 281.788 127.712L272.572 108.64C276.668 106.08 281.575 104.117 287.292 102.752C293.009 101.387 298.599 100.704 304.06 100.704C316.092 100.704 325.393 103.392 331.964 108.768C338.62 114.144 341.948 122.677 341.948 134.368V172H315.068ZM295.228 173.28C289.511 173.28 284.732 172.299 280.892 170.336C277.052 168.373 274.151 165.771 272.188 162.528C270.225 159.2 269.244 155.531 269.244 151.52C269.244 146.997 270.396 143.157 272.7 140C275.004 136.843 278.503 134.453 283.196 132.832C287.975 131.211 293.991 130.4 301.244 130.4H315.836V144.352H305.852C302.78 144.352 300.519 144.864 299.068 145.888C297.703 146.827 297.02 148.277 297.02 150.24C297.02 151.861 297.617 153.227 298.812 154.336C300.092 155.36 301.799 155.872 303.932 155.872C305.895 155.872 307.687 155.36 309.308 154.336C311.015 153.227 312.252 151.52 313.02 149.216L316.732 157.792C315.623 162.997 313.276 166.88 309.692 169.44C306.108 172 301.287 173.28 295.228 173.28ZM380.05 172V101.984H408.978V172H380.05ZM394.514 96.352C389.223 96.352 384.999 94.944 381.842 92.128C378.685 89.312 377.106 85.8133 377.106 81.632C377.106 77.4507 378.685 73.952 381.842 71.136C384.999 68.32 389.223 66.912 394.514 66.912C399.805 66.912 404.029 68.2347 407.186 70.88C410.343 73.5253 411.922 76.9387 411.922 81.12C411.922 85.5573 410.343 89.2267 407.186 92.128C404.029 94.944 399.805 96.352 394.514 96.352ZM447.4 172V101.984H474.92V123.104L470.44 117.088C472.573 111.627 475.987 107.531 480.68 104.8C485.373 102.069 491.005 100.704 497.576 100.704V126.304C496.296 126.133 495.144 126.005 494.12 125.92C493.181 125.835 492.2 125.792 491.176 125.792C486.824 125.792 483.24 126.944 480.424 129.248C477.693 131.467 476.328 135.349 476.328 140.896V172H447.4ZM639.126 174.048C625.387 174.048 614.678 170.336 606.998 162.912C599.318 155.488 595.478 145.077 595.478 131.68V82.4H625.686V130.784C625.686 137.611 626.923 142.475 629.398 145.376C631.873 148.192 635.201 149.6 639.382 149.6C643.649 149.6 646.977 148.192 649.366 145.376C651.841 142.475 653.078 137.611 653.078 130.784V82.4H682.774V131.68C682.774 145.077 678.934 155.488 671.254 162.912C663.574 170.336 652.865 174.048 639.126 174.048ZM768.045 173.28C761.986 173.28 756.952 172 752.941 169.44C749.016 166.795 746.114 162.827 744.237 157.536C742.36 152.16 741.421 145.333 741.421 137.056C741.421 128.608 742.274 121.739 743.981 116.448C745.773 111.072 748.632 107.104 752.557 104.544C756.482 101.984 761.645 100.704 768.045 100.704C774.189 100.704 779.821 102.197 784.941 105.184C790.061 108.085 794.157 112.267 797.229 117.728C800.301 123.104 801.837 129.547 801.837 137.056C801.837 144.565 800.301 151.051 797.229 156.512C794.157 161.888 790.061 166.027 784.941 168.928C779.821 171.829 774.189 173.28 768.045 173.28ZM721.325 196.832V101.984H748.845V111.456L748.973 137.056L750.253 162.656V196.832H721.325ZM761.133 150.752C763.266 150.752 765.186 150.24 766.893 149.216C768.6 148.192 769.965 146.656 770.989 144.608C772.013 142.56 772.525 140.043 772.525 137.056C772.525 133.984 772.013 131.424 770.989 129.376C769.965 127.328 768.6 125.792 766.893 124.768C765.186 123.744 763.266 123.232 761.133 123.232C759 123.232 757.08 123.744 755.373 124.768C753.666 125.792 752.301 127.328 751.277 129.376C750.253 131.424 749.741 133.984 749.741 137.056C749.741 140.043 750.253 142.56 751.277 144.608C752.301 146.656 753.666 148.192 755.373 149.216C757.08 150.24 759 150.752 761.133 150.752Z" fill="black"/>
</g>
</g>
</g>
</g>
<defs>
<filter id="filter0_b_306_991" x="150.746" y="62.9121" width="655.091" height="137.92" filterUnits="userSpaceOnUse" color-interpolation-filters="sRGB">
<feFlood flood-opacity="0" result="BackgroundImageFix"/>
<feGaussianBlur in="BackgroundImageFix" stdDeviation="2"/>
<feComposite in2="SourceAlpha" operator="in" result="effect1_backgroundBlur_306_991"/>
<feBlend mode="normal" in="SourceGraphic" in2="effect1_backgroundBlur_306_991" result="shape"/>
</filter>
<clipPath id="clip0_306_991">
<rect width="951" height="302" rx="51" fill="white"/>
</clipPath>
</defs>
</svg>
