<svg width="951" height="363" viewBox="0 0 951 363" fill="none" xmlns="http://www.w3.org/2000/svg">
<g clip-path="url(#clip0_306_991)">
<rect width="951" height="363" rx="51" fill="#F79489"/>
<rect x="509" y="241" width="320.393" height="45.7359" rx="22.868" fill="#FFF1DA"/>
<rect x="739" y="66" width="76.2841" height="45.7359" rx="22.868" fill="#FFF1DA"/>
<path d="M145 241C145 228.37 155.238 218.132 167.868 218.132H198.416C211.046 218.132 221.284 228.37 221.284 241V241C221.284 253.63 211.046 263.868 198.416 263.868H167.868C155.238 263.868 145 253.63 145 241V241Z" fill="#FFF1DA"/>
<g filter="url(#filter0_b_306_991)">
<path d="M154.746 199V109.4H197.882C206.245 109.4 213.455 110.765 219.514 113.496C225.658 116.227 230.394 120.152 233.722 125.272C237.05 130.307 238.714 136.28 238.714 143.192C238.714 150.104 237.05 156.077 233.722 161.112C230.394 166.147 225.658 170.072 219.514 172.888C213.455 175.619 206.245 176.984 197.882 176.984H171.514L184.954 164.056V199H154.746ZM184.954 167.384L171.514 153.688H195.962C200.143 153.688 203.215 152.749 205.178 150.872C207.226 148.995 208.25 146.435 208.25 143.192C208.25 139.949 207.226 137.389 205.178 135.512C203.215 133.635 200.143 132.696 195.962 132.696H171.514L184.954 119V167.384ZM315.068 199V186.584L313.02 183.256V159.704C313.02 156.291 311.953 153.688 309.82 151.896C307.772 150.104 304.401 149.208 299.708 149.208C296.551 149.208 293.351 149.72 290.108 150.744C286.865 151.683 284.092 153.005 281.788 154.712L272.572 135.64C276.668 133.08 281.575 131.117 287.292 129.752C293.009 128.387 298.599 127.704 304.06 127.704C316.092 127.704 325.393 130.392 331.964 135.768C338.62 141.144 341.948 149.677 341.948 161.368V199H315.068ZM295.228 200.28C289.511 200.28 284.732 199.299 280.892 197.336C277.052 195.373 274.151 192.771 272.188 189.528C270.225 186.2 269.244 182.531 269.244 178.52C269.244 173.997 270.396 170.157 272.7 167C275.004 163.843 278.503 161.453 283.196 159.832C287.975 158.211 293.991 157.4 301.244 157.4H315.836V171.352H305.852C302.78 171.352 300.519 171.864 299.068 172.888C297.703 173.827 297.02 175.277 297.02 177.24C297.02 178.861 297.617 180.227 298.812 181.336C300.092 182.36 301.799 182.872 303.932 182.872C305.895 182.872 307.687 182.36 309.308 181.336C311.015 180.227 312.252 178.52 313.02 176.216L316.732 184.792C315.623 189.997 313.276 193.88 309.692 196.44C306.108 199 301.287 200.28 295.228 200.28ZM380.05 199V128.984H408.978V199H380.05ZM394.514 123.352C389.223 123.352 384.999 121.944 381.842 119.128C378.685 116.312 377.106 112.813 377.106 108.632C377.106 104.451 378.685 100.952 381.842 98.136C384.999 95.32 389.223 93.912 394.514 93.912C399.805 93.912 404.029 95.2347 407.186 97.88C410.343 100.525 411.922 103.939 411.922 108.12C411.922 112.557 410.343 116.227 407.186 119.128C404.029 121.944 399.805 123.352 394.514 123.352ZM447.4 199V128.984H474.92V150.104L470.44 144.088C472.573 138.627 475.987 134.531 480.68 131.8C485.373 129.069 491.005 127.704 497.576 127.704V153.304C496.296 153.133 495.144 153.005 494.12 152.92C493.181 152.835 492.2 152.792 491.176 152.792C486.824 152.792 483.24 153.944 480.424 156.248C477.693 158.467 476.328 162.349 476.328 167.896V199H447.4ZM639.126 201.048C625.387 201.048 614.678 197.336 606.998 189.912C599.318 182.488 595.478 172.077 595.478 158.68V109.4H625.686V157.784C625.686 164.611 626.923 169.475 629.398 172.376C631.873 175.192 635.201 176.6 639.382 176.6C643.649 176.6 646.977 175.192 649.366 172.376C651.841 169.475 653.078 164.611 653.078 157.784V109.4H682.774V158.68C682.774 172.077 678.934 182.488 671.254 189.912C663.574 197.336 652.865 201.048 639.126 201.048ZM768.045 200.28C761.986 200.28 756.952 199 752.941 196.44C749.016 193.795 746.114 189.827 744.237 184.536C742.36 179.16 741.421 172.333 741.421 164.056C741.421 155.608 742.274 148.739 743.981 143.448C745.773 138.072 748.632 134.104 752.557 131.544C756.482 128.984 761.645 127.704 768.045 127.704C774.189 127.704 779.821 129.197 784.941 132.184C790.061 135.085 794.157 139.267 797.229 144.728C800.301 150.104 801.837 156.547 801.837 164.056C801.837 171.565 800.301 178.051 797.229 183.512C794.157 188.888 790.061 193.027 784.941 195.928C779.821 198.829 774.189 200.28 768.045 200.28ZM721.325 223.832V128.984H748.845V138.456L748.973 164.056L750.253 189.656V223.832H721.325ZM761.133 177.752C763.266 177.752 765.186 177.24 766.893 176.216C768.6 175.192 769.965 173.656 770.989 171.608C772.013 169.56 772.525 167.043 772.525 164.056C772.525 160.984 772.013 158.424 770.989 156.376C769.965 154.328 768.6 152.792 766.893 151.768C765.186 150.744 763.266 150.232 761.133 150.232C759 150.232 757.08 150.744 755.373 151.768C753.666 152.792 752.301 154.328 751.277 156.376C750.253 158.424 749.741 160.984 749.741 164.056C749.741 167.043 750.253 169.56 751.277 171.608C752.301 173.656 753.666 175.192 755.373 176.216C757.08 177.24 759 177.752 761.133 177.752Z" fill="black"/>
</g>
</g>
<defs>
<filter id="filter0_b_306_991" x="150.746" y="89.9121" width="655.091" height="137.92" filterUnits="userSpaceOnUse" color-interpolation-filters="sRGB">
<feFlood flood-opacity="0" result="BackgroundImageFix"/>
<feGaussianBlur in="BackgroundImageFix" stdDeviation="2"/>
<feComposite in2="SourceAlpha" operator="in" result="effect1_backgroundBlur_306_991"/>
<feBlend mode="normal" in="SourceGraphic" in2="effect1_backgroundBlur_306_991" result="shape"/>
</filter>
<clipPath id="clip0_306_991">
<rect width="951" height="363" rx="51" fill="white"/>
</clipPath>
</defs>
</svg>
