<svg xmlns="http://www.w3.org/2000/svg" xmlns:xlink="http://www.w3.org/1999/xlink" fill="none" version="1.1" width="12.25" height="14" viewBox="0 0 12.25 14"><defs><clipPath id="master_svg0_3_0271"><rect x="0" y="0" width="12.25" height="14" rx="0"/></clipPath></defs><g clip-path="url(#master_svg0_3_0271)"><g transform="matrix(1,0,0,-1,0,28.6015625)"><g><path d="M3.9375,24.36328125L3.9375,23.05078125L3.9375,24.36328125L3.9375,23.05078125L8.3125,23.05078125L8.3125,24.36328125Q8.28516,25.29298125,7.68359,25.92188125Q7.05469,26.52348125,6.125,26.55078125Q5.19531,26.52348125,4.56641,25.92188125Q3.96484,25.29298125,3.9375,24.36328125ZM2.1875,23.05078125L2.1875,24.36328125L2.1875,23.05078125L2.1875,24.36328125Q2.24219,26.03128125,3.33594,27.152381249999998Q4.45703,28.24608125,6.125,28.30078125Q7.79297,28.24608125,8.91406,27.152381249999998Q10.0078,26.03128125,10.0625,24.36328125L10.0625,23.05078125L10.5,23.05078125Q11.2383,23.023441249999998,11.7305,22.53125125Q12.2227,22.03906125,12.25,21.30078125L12.25,16.05078125Q12.2227,15.31250125,11.7305,14.82031225Q11.2383,14.32812505,10.5,14.30078125L1.75,14.30078125Q1.01172,14.32812505,0.519531,14.82031225Q0.0273438,15.31250125,0,16.05078125L0,21.30078125Q0.0273438,22.03906125,0.519531,22.53125125Q1.01172,23.023441249999998,1.75,23.05078125L2.1875,23.05078125Z" fill="#22C55E" fill-opacity="1" style="mix-blend-mode:passthrough"/></g></g></g></svg>