<svg xmlns="http://www.w3.org/2000/svg" xmlns:xlink="http://www.w3.org/1999/xlink" fill="none" version="1.1" width="14" height="14" viewBox="0 0 14 14"><defs><clipPath id="master_svg0_3_0266"><rect x="0" y="0" width="14" height="14" rx="0"/></clipPath></defs><g clip-path="url(#master_svg0_3_0266)"><g transform="matrix(1,0,0,-1,0,28.4375)"><g><path d="M6.999987781982422,28.13675Q7.203307781982422,28.13675,7.377587781982422,28.054650000000002L12.867207781982422,25.867150000000002Q13.361007781982423,25.67575,13.651407781982423,25.26565Q13.970907781982422,24.855449999999998,13.970907781982422,24.30855Q14.000007781982422,22.91406,13.477207781982422,21.02734Q12.954307781982422,19.14063,11.589207781982422,17.36328Q10.253107781982422,15.55859,7.755177781982422,14.382812Q6.999987781982422,14.054688,6.244807781982422,14.382812Q3.746877781982422,15.55859,2.410777781982422,17.36328Q1.0456377819824219,19.14063,0.5228127819824219,21.02734Q-0.000009118017578125387,22.91406,0.029036491982421874,24.30855Q0.029036491982421874,24.855449999999998,0.3485387819824219,25.26565Q0.6389947819824219,25.67575,1.1327677819824218,25.867150000000002L6.622397781982422,28.054650000000002Q6.796667781982422,28.13675,6.999987781982422,28.13675ZM6.999987781982422,26.304650000000002L6.999987781982422,15.96875L6.999987781982422,26.304650000000002L6.999987781982422,15.96875Q8.975097781982422,16.92578,10.107907781982421,18.40234Q11.211607781982423,19.87891,11.676307781982421,21.4375Q12.112007781982422,23.02344,12.112007781982422,24.28125L6.999987781982422,26.304650000000002Z" fill="#22C55E" fill-opacity="1" style="mix-blend-mode:passthrough"/></g></g></g></svg>